<svg xmlns="http://www.w3.org/2000/svg" viewBox="0 0 64 64"><path fill="#897e8b" d="M51.11 33.9L46 44.86V38.51l.89-4.88a1.0171 1.0171 0 00-.42-1l-5.22-3.65 2.83-4.9 6.43 6.43A2.9966 2.9966 0 0151.11 33.9zM17.11 33.63L18 38.51v6.35L12.89 33.9a2.9966 2.9966 0 01.6-3.39l6.43-6.43 2.83 4.9-5.22 3.65A1.0171 1.0171 0 0017.11 33.63z"/><path fill="#fd6930" d="M44.5682 21.7482a1 1 0 01.16 1.2059L44.08 24.08l-2.83 4.9-.3.52a4.9082 4.9082 0 01-.87 1.1l-1.69-1.18a2.9376 2.9376 0 00.83-.92l.39-.67 3.01-5.21 1.03-1.79zM25.61 29.42L23.92 30.6a4.9082 4.9082 0 01-.87-1.1l-.3-.52-2.83-4.9-.6479-1.1259a1 1 0 01.16-1.2059L20.35 20.83l1.03 1.79 3.01 5.21.39.67A2.9376 2.9376 0 0025.61 29.42z"/><rect width="28" height="24" x="18" y="34" fill="#edba94"/><polygon fill="#fd6930" points="28 34 28 43 32 40.923 36 43 36 34 28 34"/><rect width="5" height="8" x="29.5" y="48.5" fill="#f1f6f7" rx="1" transform="rotate(90 32 52.5)"/><rect width="38" height="4" x="13" y="17" fill="#897e8b"/><path fill="#497090" d="M11 25h0a2.76 2.76 0 01-2.7509-2.99L9 13h4l.7509 9.01A2.76 2.76 0 0111 25zM53 25h0a2.76 2.76 0 01-2.7509-2.99L51 13h4l.7509 9.01A2.76 2.76 0 0153 25z"/><path fill="#edba94" d="M11 6h0a1 1 0 011 1v6a0 0 0 010 0H10a0 0 0 010 0V7A1 1 0 0111 6zM53 6h0a1 1 0 011 1v6a0 0 0 010 0H52a0 0 0 010 0V7A1 1 0 0153 6z"/><path fill="#497090" d="M36.6188,8H27.3812a3,3,0,0,0-2.5981,1.5l-4.6188,8a3,3,0,0,0,0,3l4.6188,8A3,3,0,0,0,27.3812,30h9.2376a3,3,0,0,0,2.5981-1.5l4.6188-8a3,3,0,0,0,0-3l-4.6188-8A3,3,0,0,0,36.6188,8Z"/><circle cx="32" cy="19" r="6" fill="#f1f6f7"/><path fill="#897e8b" d="M17 9H5A1 1 0 015 7H17a1 1 0 010 2zM59 9H47a1 1 0 010-2H59a1 1 0 010 2z"/><circle cx="32" cy="19" r="4" fill="#edba94"/></svg>