<svg xmlns="http://www.w3.org/2000/svg" viewBox="0 0 64 64"><ellipse cx="32" cy="57" fill="#ade194" rx="11.5" ry="3"/><ellipse cx="32" cy="57" fill="#ade194" rx="11.5" ry="3"/><path fill="#fd6930" d="M41.3191,6.1382a11.8362,11.8362,0,0,0-1.6611-.767A19.3984,19.3984,0,0,0,31.9924,4a18.745,18.745,0,0,0-9.5639,2.2776,18.07,18.07,0,0,0-9.1606,15.9437c.2137,7.2512,4.9363,13.9681,9.1369,19.8017,2.5631,3.5328,5.2922,7.019,8.1875,10.3193l.0136.016a1.85,1.85,0,0,0,2.7811.024A103.6687,103.6687,0,0,0,47.703,32.3314c1.7325-3.3,3.0378-6.6007,3.0378-10.2729A18.27,18.27,0,0,0,41.3191,6.1382ZM32,35A13.5,13.5,0,1,1,45.5,21.5,13.5,13.5,0,0,1,32,35Z"/><rect width="15.214" height="13.891" x="24.393" y="14.554" fill="#edba94"/><polygon fill="#fd6930" points="33.984 14.554 33.984 18.854 32 17.862 30.016 18.854 30.016 14.554 33.984 14.554"/><rect width="5.292" height="2.646" x="29.354" y="25.044" fill="#f1f6f7" rx=".5"/></svg>