<svg xmlns="http://www.w3.org/2000/svg" viewBox="0 0 64 64"><rect width="36" height="2" x="6" y="39" fill="#497090"/><rect width="14" height="12" x="25" y="27" fill="#edba94"/><polygon fill="#fd6930" points="34.5 27 34.5 33 32 31.615 29.5 33 29.5 27 34.5 27"/><rect width="5" height="2" x="29.5" y="35" fill="#f1f6f7"/><rect width="14" height="12" x="10" y="27" fill="#edba94"/><polygon fill="#fd6930" points="19.5 27 19.5 33 17 31.615 14.5 33 14.5 27 19.5 27"/><rect width="5" height="2" x="14.5" y="35" fill="#f1f6f7"/><rect width="14" height="12" x="17.5" y="15" fill="#edba94"/><polygon fill="#fd6930" points="27 15 27 21 24.5 19.615 22 21 22 15 27 15"/><rect width="5" height="2" x="22" y="23" fill="#f1f6f7"/><path fill="#497090" d="M59,33.45V43a1.0029,1.0029,0,0,1-1,1H42V21.5H53a.984.984,0,0,1,.88.53l.69,1.47,4.19,9A1.9714,1.9714,0,0,1,59,33.45Z"/><polygon fill="#f1f6f7" points="58.76 32.5 51 32.5 50 30.5 44 30.5 44 23.5 54.57 23.5 58.76 32.5"/><rect width="3" height="1" x="44" y="32.5" fill="#f1f6f7" rx=".5"/><rect width="56" height="3" x="4" y="41" fill="#fd6930"/><circle cx="51" cy="43" r="4" fill="#897e8b"/><circle cx="51" cy="43" r="2" fill="#f1f6f7"/><circle cx="13" cy="43" r="4" fill="#897e8b"/><circle cx="13" cy="43" r="2" fill="#f1f6f7"/><circle cx="21.5" cy="43" r="4" fill="#897e8b"/><circle cx="21.5" cy="43" r="2" fill="#f1f6f7"/><path fill="#897e8b" d="M59,49H5a1,1,0,0,1,0-2H59a1,1,0,0,1,0,2Z"/></svg>