<svg xmlns="http://www.w3.org/2000/svg" viewBox="0 0 64 64"><rect width="7" height="6" x="34" y="34" fill="#edba94"/><polygon fill="#fd6930" points="38.5 34 38.5 36.625 37.5 36.019 36.5 36.625 36.5 34 38.5 34"/><rect width="2" height="1" x="36.5" y="38" fill="#f1f6f7"/><rect width="16" height="4" x="9" y="28" fill="#fd6930"/><rect width="7" height="11" x="11" y="17" fill="#edba94"/><rect width="22" height="9" x="7" y="32" fill="#edba94"/><path fill="#497090" d="M4,36H15l2,4H50l2-4h7a.1985.1985,0,0,1,.1451.3387A10.6109,10.6109,0,0,0,56,42a11.6635,11.6635,0,0,0,0,4H12A15.28,15.28,0,0,1,4,36Z"/><path fill="#9dc6fb" d="M60,42v5H4V42a28.6349,28.6349,0,0,1,3.14.16,27.8518,27.8518,0,0,1,4.24.84l.12.03a24.3151,24.3151,0,0,0,7,.97,19.44,19.44,0,0,0,6.46-.96c.04-.01.09-.03.13-.04a21.23,21.23,0,0,1,6.9-1,21.3009,21.3009,0,0,1,6.91,1c.04.01.09.03.13.04A19.5086,19.5086,0,0,0,45.5,44a24.3151,24.3151,0,0,0,7-.97l.12-.03a29.6813,29.6813,0,0,1,3.34-.72A26.7953,26.7953,0,0,1,60,42Z"/><circle cx="12.5" cy="38.5" r="1" fill="#f1f6f7"/><rect width="5" height="2" x="24" y="34" fill="#f1f6f7"/><rect width="7" height="3" x="11" y="19" fill="#fd6930"/><rect width="7" height="6" x="42" y="34" fill="#edba94"/><polygon fill="#fd6930" points="46.5 34 46.5 36.625 45.5 36.019 44.5 36.625 44.5 34 46.5 34"/><rect width="2" height="1" x="44.5" y="38" fill="#f1f6f7"/><rect width="7" height="6" x="38" y="28" fill="#edba94"/><polygon fill="#fd6930" points="42.5 28 42.5 30.625 41.5 30.019 40.5 30.625 40.5 28 42.5 28"/><rect width="2" height="1" x="40.5" y="32" fill="#f1f6f7"/><rect width="5" height="2" x="17" y="34" fill="#f1f6f7"/></svg>