<svg xmlns="http://www.w3.org/2000/svg" viewBox="0 0 64 64"><rect width="2" height="31" x="9" y="15" fill="#edba94"/><rect width="2" height="31" x="53" y="15" fill="#edba94"/><rect width="3" height="26" x="48" y="15" fill="#edba94"/><rect width="2" height="26" x="40" y="15" fill="#edba94"/><rect width="2" height="26" x="22" y="15" fill="#edba94"/><rect width="3" height="26" x="26" y="15" fill="#edba94"/><rect width="2" height="31" x="31" y="15" fill="#edba94"/><rect width="3" height="26" x="35" y="15" fill="#edba94"/><rect width="2" height="26" x="44" y="15" fill="#edba94"/><rect width="3" height="26" x="17" y="15" fill="#edba94"/><rect width="2" height="26" x="13" y="15" fill="#edba94"/><rect width="2" height="3" x="22" y="43" fill="#edba94"/><rect width="3" height="3" x="26" y="43" fill="#edba94"/><rect width="3" height="3" x="17" y="43" fill="#edba94"/><rect width="2" height="3" x="13" y="43" fill="#edba94"/><rect width="3" height="3" x="48" y="43" fill="#edba94"/><rect width="3" height="3" x="39" y="43" fill="#edba94"/><rect width="2" height="3" x="35" y="43" fill="#edba94"/><rect width="2" height="3" x="44" y="43" fill="#edba94"/><path fill="#edba94" d="M6 49V47H4v2a3.9989 3.9989 0 004 4h2V51H8A2.0059 2.0059 0 016 49zM8 8a3.9989 3.9989 0 00-4 4v2H6V12a2.0059 2.0059 0 012-2h2V8zM58 49a2.0059 2.0059 0 01-2 2H54v2h2a3.9989 3.9989 0 004-4V47H58zM56 8H54v2h2a2.0059 2.0059 0 012 2v2h2V12A3.9989 3.9989 0 0056 8z"/><rect width="4.096" height="13.314" x="35.709" y="44.036" fill="#fd6930" rx="2.048" transform="rotate(-45 37.757 50.693)"/><circle cx="30.153" cy="43.089" r="9.217" fill="#897e8b"/><circle cx="30.153" cy="43.089" r="6.983" fill="#f1f6f7"/></svg>